<mxfile host="app.diagrams.net" agent="Mozilla/5.0 (Windows NT 10.0; Win64; x64) AppleWebKit/537.36 (KHTML, like Gecko) Chrome/139.0.0.0 Safari/537.36" version="28.1.2">
  <diagram name="Page-1" id="ii1fHsr8HeEknOK1_5y3">
    <mxGraphModel dx="1042" dy="562" grid="1" gridSize="1" guides="1" tooltips="1" connect="1" arrows="1" fold="1" page="1" pageScale="1" pageWidth="827" pageHeight="1169" math="0" shadow="0">
      <root>
        <mxCell id="0" />
        <mxCell id="1" parent="0" />
        <mxCell id="_dP2GV94PhZI82bOlB9n-8" value="" style="edgeStyle=orthogonalEdgeStyle;rounded=0;orthogonalLoop=1;jettySize=auto;html=1;" edge="1" parent="1" source="_dP2GV94PhZI82bOlB9n-1" target="_dP2GV94PhZI82bOlB9n-7">
          <mxGeometry relative="1" as="geometry" />
        </mxCell>
        <mxCell id="_dP2GV94PhZI82bOlB9n-1" value="" style="ellipse;whiteSpace=wrap;html=1;aspect=fixed;rotation=0;" vertex="1" parent="1">
          <mxGeometry x="374" y="200" width="80" height="80" as="geometry" />
        </mxCell>
        <mxCell id="_dP2GV94PhZI82bOlB9n-6" value="" style="edgeStyle=orthogonalEdgeStyle;rounded=0;orthogonalLoop=1;jettySize=auto;html=1;" edge="1" parent="1" source="_dP2GV94PhZI82bOlB9n-2" target="_dP2GV94PhZI82bOlB9n-1">
          <mxGeometry relative="1" as="geometry" />
        </mxCell>
        <mxCell id="_dP2GV94PhZI82bOlB9n-2" value="" style="ellipse;whiteSpace=wrap;html=1;aspect=fixed;" vertex="1" parent="1">
          <mxGeometry x="374" y="60" width="80" height="80" as="geometry" />
        </mxCell>
        <mxCell id="_dP2GV94PhZI82bOlB9n-31" style="edgeStyle=orthogonalEdgeStyle;rounded=0;orthogonalLoop=1;jettySize=auto;html=1;entryX=0.5;entryY=0;entryDx=0;entryDy=0;" edge="1" parent="1" source="_dP2GV94PhZI82bOlB9n-7" target="_dP2GV94PhZI82bOlB9n-9">
          <mxGeometry relative="1" as="geometry" />
        </mxCell>
        <mxCell id="_dP2GV94PhZI82bOlB9n-7" value="" style="ellipse;whiteSpace=wrap;html=1;" vertex="1" parent="1">
          <mxGeometry x="374" y="360" width="80" height="80" as="geometry" />
        </mxCell>
        <mxCell id="_dP2GV94PhZI82bOlB9n-12" value="" style="edgeStyle=orthogonalEdgeStyle;rounded=0;orthogonalLoop=1;jettySize=auto;html=1;" edge="1" parent="1" source="_dP2GV94PhZI82bOlB9n-9" target="_dP2GV94PhZI82bOlB9n-11">
          <mxGeometry relative="1" as="geometry" />
        </mxCell>
        <mxCell id="_dP2GV94PhZI82bOlB9n-9" value="" style="ellipse;whiteSpace=wrap;html=1;" vertex="1" parent="1">
          <mxGeometry x="374" y="520" width="80" height="80" as="geometry" />
        </mxCell>
        <mxCell id="_dP2GV94PhZI82bOlB9n-16" value="" style="edgeStyle=orthogonalEdgeStyle;rounded=0;orthogonalLoop=1;jettySize=auto;html=1;" edge="1" parent="1" source="_dP2GV94PhZI82bOlB9n-11" target="_dP2GV94PhZI82bOlB9n-15">
          <mxGeometry relative="1" as="geometry" />
        </mxCell>
        <mxCell id="_dP2GV94PhZI82bOlB9n-11" value="Release" style="ellipse;whiteSpace=wrap;html=1;" vertex="1" parent="1">
          <mxGeometry x="374" y="680" width="80" height="80" as="geometry" />
        </mxCell>
        <mxCell id="_dP2GV94PhZI82bOlB9n-18" value="" style="edgeStyle=orthogonalEdgeStyle;rounded=0;orthogonalLoop=1;jettySize=auto;html=1;" edge="1" parent="1" source="_dP2GV94PhZI82bOlB9n-15" target="_dP2GV94PhZI82bOlB9n-17">
          <mxGeometry relative="1" as="geometry" />
        </mxCell>
        <mxCell id="_dP2GV94PhZI82bOlB9n-15" value="" style="ellipse;whiteSpace=wrap;html=1;" vertex="1" parent="1">
          <mxGeometry x="374" y="840" width="80" height="80" as="geometry" />
        </mxCell>
        <mxCell id="_dP2GV94PhZI82bOlB9n-20" value="" style="edgeStyle=orthogonalEdgeStyle;rounded=0;orthogonalLoop=1;jettySize=auto;html=1;" edge="1" parent="1" source="_dP2GV94PhZI82bOlB9n-17" target="_dP2GV94PhZI82bOlB9n-19">
          <mxGeometry relative="1" as="geometry" />
        </mxCell>
        <mxCell id="_dP2GV94PhZI82bOlB9n-17" value="" style="ellipse;whiteSpace=wrap;html=1;" vertex="1" parent="1">
          <mxGeometry x="374" y="1000" width="80" height="80" as="geometry" />
        </mxCell>
        <mxCell id="_dP2GV94PhZI82bOlB9n-19" value="Monitor" style="ellipse;whiteSpace=wrap;html=1;" vertex="1" parent="1">
          <mxGeometry x="374" y="1160" width="80" height="80" as="geometry" />
        </mxCell>
        <mxCell id="_dP2GV94PhZI82bOlB9n-22" value="plan" style="text;html=1;align=center;verticalAlign=middle;whiteSpace=wrap;rounded=0;" vertex="1" parent="1">
          <mxGeometry x="385" y="80" width="60" height="37" as="geometry" />
        </mxCell>
        <mxCell id="_dP2GV94PhZI82bOlB9n-28" value="Code" style="text;html=1;align=center;verticalAlign=middle;whiteSpace=wrap;rounded=0;" vertex="1" parent="1">
          <mxGeometry x="386" y="225" width="60" height="30" as="geometry" />
        </mxCell>
        <mxCell id="_dP2GV94PhZI82bOlB9n-34" value="Build" style="text;html=1;align=center;verticalAlign=middle;whiteSpace=wrap;rounded=0;" vertex="1" parent="1">
          <mxGeometry x="382" y="382" width="60" height="30" as="geometry" />
        </mxCell>
        <mxCell id="_dP2GV94PhZI82bOlB9n-36" value="Test" style="text;html=1;align=center;verticalAlign=middle;whiteSpace=wrap;rounded=0;" vertex="1" parent="1">
          <mxGeometry x="385" y="534" width="60" height="41" as="geometry" />
        </mxCell>
        <mxCell id="_dP2GV94PhZI82bOlB9n-37" value="Deploy" style="text;html=1;align=center;verticalAlign=middle;whiteSpace=wrap;rounded=0;" vertex="1" parent="1">
          <mxGeometry x="387" y="863" width="60" height="30" as="geometry" />
        </mxCell>
        <mxCell id="_dP2GV94PhZI82bOlB9n-38" value="Operate" style="text;html=1;align=center;verticalAlign=middle;whiteSpace=wrap;rounded=0;rotation=0;" vertex="1" parent="1">
          <mxGeometry x="385" y="1023" width="60" height="30" as="geometry" />
        </mxCell>
      </root>
    </mxGraphModel>
  </diagram>
</mxfile>
